<svg xmlns="http://www.w3.org/2000/svg" viewBox="0 0 100 100" width="256" height="256">
    <path fill="#00ff00"
        d="M84.4 9.2H51.3c-3.8 0-6.9 3.1-6.9 6.9v23.4c0 3.6-2.9 6.5-6.5 6.5H15.2c-3.6 0-6.5 2.9-6.5 6.6v31.3c0 3.8 3.1 6.9 6.9 6.9h68.8c3.8 0 6.9-3.1 6.9-6.9V16.1c0-3.8-3.1-6.9-6.9-6.9zM64.3 67.9c0 1.7-1.4 3-3.1 3H32.7c-.2 0-.3.2-.1.3l4.2 4.2c.2.2.2.5 0 .7L33.9 79c-.2.2-.5.2-.7 0l-8.6-8.6c-1.2-1.2-1.2-3.1 0-4.3l8.4-8.4c.2-.2.5-.2.7 0l2.9 2.9c.2.2.2.5 0 .7l-4.2 4.2c-.1.1 0 .3.1.3h26.2c.3 0 .5-.2.5-.5v-9.7c0-.3.2-.5.5-.5h4.1c.3 0 .5.2.5.5v12.3zm18.5-32.7c0 .2-.1.3-.3.3h-2.6c-.2 0-.3-.1-.3-.3V23.3c0-1.3-1-2.3-2.3-2.3H66c-.2 0-.3-.1-.3-.3v-2.6c0-.2.1-.3.3-.3h11.3c3 0 5.5 2.4 5.5 5.5v11.9z"
        class="color1a1a1a svgShape"></path>
</svg>